<svg width="46" height="58" viewBox="0 0 46 58" fill="none" xmlns="http://www.w3.org/2000/svg">
<path fill-rule="evenodd" clip-rule="evenodd" d="M31.3054 0C32.7156 0.00030118 34.0679 0.560753 35.065 1.55808L44.1423 10.6354C45.1396 11.6324 45.7 12.9848 45.7003 14.395V37.2238C45.7003 38.6341 45.1401 39.9867 44.1428 40.984C43.1456 41.9812 41.793 42.5415 40.3826 42.5415H35.065V47.8592C35.065 49.2695 34.5047 50.6221 33.5074 51.6193C32.5102 52.6166 31.1576 53.1769 29.7473 53.1769H5.81769C4.40735 53.1769 3.05477 52.6166 2.05751 51.6193C1.06025 50.6221 0.5 49.2695 0.5 47.8592V15.9531C0.5 14.5427 1.06025 13.1901 2.05751 12.1929C3.05477 11.1956 4.40735 10.6354 5.81769 10.6354H11.1354V5.31769C11.1354 3.90735 11.6956 2.55477 12.6929 1.55751C13.6901 0.560254 15.0427 0 16.4531 0H31.3054ZM11.1354 15.9531H5.81769V47.8592H29.7473V42.5415H16.4531C15.0427 42.5415 13.6901 41.9812 12.6929 40.984C11.6956 39.9867 11.1354 38.6341 11.1354 37.2238V15.9531ZM27.0884 5.31769H16.4531V37.2238H40.3826V18.6119H31.0767C30.0853 18.6119 29.1294 18.2425 28.3955 17.576C27.6616 16.9094 27.2022 15.9934 27.107 15.0065L27.0884 14.6236V5.31769ZM32.4061 6.41845V13.2942H39.2819L32.4061 6.41845Z" fill="#767474" fill-opacity="0.8"/>
</svg>
