<svg width="42" height="25" viewBox="0 0 42 25" fill="none" xmlns="http://www.w3.org/2000/svg">
<path fill-rule="evenodd" clip-rule="evenodd" d="M0.827463 7.27414C0.797852 8.22042 0.797852 9.29113 0.797852 10.5143V14.0191C0.797852 18.9748 0.797851 21.4544 2.80002 22.993C4.79991 24.5333 8.02296 24.5333 14.4645 24.5333H28.1312C34.5727 24.5333 37.7958 24.5333 39.7957 22.993C41.7979 21.4544 41.7979 18.9748 41.7979 14.0191V10.5143C41.7979 9.29113 41.7978 8.21867 41.7682 7.27414L23.5096 15.0775C22.833 15.3666 22.0718 15.5183 21.2979 15.5183C20.5239 15.5183 19.7627 15.3666 19.0861 15.0775L0.827463 7.27414ZM1.35135 3.55734C1.54117 3.59238 1.72567 3.64846 1.90485 3.72556L21.2979 12.0143L40.6908 3.72556C40.8716 3.64963 41.0561 3.59355 41.2444 3.55734C40.9482 2.72671 40.4927 2.07657 39.7957 1.54034C37.7958 3.1335e-07 34.5727 0 28.1312 0H14.4645C8.02296 0 4.79991 3.1335e-07 2.80002 1.54034C2.10074 2.07657 1.64746 2.72671 1.35135 3.55558" fill="#012F6B" fill-opacity="0.67"/>
</svg>
