<svg xmlns="http://www.w3.org/2000/svg" width="430" height="430" fill="none" viewBox="0 0 430 430"><path fill="#faddd1" d="M214.722 56c-88.236 0-89.768 136.261-86.816 201.916l173.603-.497c4.229-66.813 3.828-200.832-86.787-201.419"/><path fill="#e3c0ac" d="M158.408 244.883c4.776-.831 9.761-1.35 14.745-1.35h83.694c4.984 0 9.969.519 14.745 1.35 36.448 6.957 63.965 38.94 63.965 77.464v31.567a15.3 15.3 0 0 1-4.465 10.799 15.23 15.23 0 0 1-10.799 4.465h-19.418C262.351 372.189 259.858 386 241.064 386h-52.127c-18.795 0-21.287-13.811-59.812-16.822h-19.418a15.23 15.23 0 0 1-10.799-4.465 15.3 15.3 0 0 1-4.465-10.799v-31.567c0-38.524 27.517-70.507 63.965-77.464"/><path fill="#545454" d="M213.881 321.148a7.5 7.5 0 0 0 7.5-7.5 7.5 7.5 0 1 0-7.5 7.5m0 25.025a7.5 7.5 0 0 0 7.5-7.5 7.5 7.5 0 1 0-7.5 7.5m0 25.025a7.5 7.5 0 0 0 7.5-7.5 7.5 7.5 0 1 0-7.5 7.5"/><path fill="#c67d53" d="M220 285h-10c-25.124 0-46.313-16.846-52.889-39.858q.646-.135 1.297-.259c4.776-.831 9.761-1.35 14.745-1.35h9.034v-19.751l65.626-.001v19.752h9.034c4.984 0 9.969.519 14.745 1.35q.65.124 1.297.259C266.313 268.154 245.124 285 220 285"/><path fill="#c67d53" d="M157.111 245.142a54.9 54.9 0 0 0 10.341 19.713 78.4 78.4 0 0 1 24.904-9.764c4.401-.902 8.908-1.529 13.362-2.147 19.2-2.668 37.428-5.201 42.095-29.163l-65.626.001v19.751h-9.034c-4.984 0-9.969.519-14.745 1.35a89 89 0 0 0-1.087.215z" opacity=".5" style="mix-blend-mode:multiply"/><path fill="#c67d53" d="M241.992 73.033c19.33 0 35 15.67 35 35v63.54c0 33.851-27.414 61.265-61.265 61.265h-1.454c-33.851 0-61.265-27.414-61.265-61.265v-63.54"/><path fill="#c67d53" d="M153.008 108.033v63.54c0 33.851 27.414 61.265 61.265 61.265h1.454c4.027 0 7.963-.388 11.773-1.129-28.213-5.485-49.492-30.312-49.492-60.136v-63.54z" opacity=".3" style="mix-blend-mode:multiply"/><path fill="#faddd1" d="M276.853 141.85s.107-1.176 0-3.206c-.32-10.043-4.38-41.241-39.104-59.297 0 0-12.287 45.728-88.466 63.037-1.282.32-2.671.641-4.06.855 0 0 .315-29.362 4.289-44.322C162.648 73.472 183.126 56 214.722 56c32.507.21 53.404 17.593 66.642 42.883.164 2.536.342 5.002.514 7.389 1.274 17.683 2.232 30.981-5.025 35.578"/><path fill="#e3c0ac" d="M167.452 264.855a54.9 54.9 0 0 1-10.341-19.713q.646-.135 1.297-.259c-36.448 6.957-63.965 38.94-63.965 77.464v31.567a15.3 15.3 0 0 0 4.465 10.799 15.23 15.23 0 0 0 10.799 4.465h19.418q.654.051 1.293.106a15.2 15.2 0 0 1-.975-5.37v-31.567c0-28.649 15.218-53.68 38.009-67.492" opacity=".5" style="mix-blend-mode:multiply"/></svg>