<svg xmlns="http://www.w3.org/2000/svg" width="430" height="430" fill="none" viewBox="0 0 430 430"><path fill="#915110" d="M274.2 144.5v29.34a59 59 0 0 1-28.67 50.66v18.69c0 16.83-13.65 30-30.48 30h-2.4a30.3 30.3 0 0 1-28.57-19.45 29.8 29.8 0 0 1-1.9-10.54v-19.56c-1-.65-2-1.33-3-2-1-.71-1.93-1.46-2.87-2.22s-1.85-1.58-2.74-2.41c-.44-.42-.88-.84-1.31-1.27a59 59 0 0 1-13.1-19.64c-.29-.72-.57-1.45-.83-2.18s-.61-1.76-.88-2.65a58.7 58.7 0 0 1-2.61-17.37v-28.98q4.89-1.11 9.4-2.38l.23-.06c1.93-.54 3.8-1.1 5.63-1.69 1-.29 1.89-.6 2.82-.92 1.85-.61 3.65-1.26 5.4-1.92 50.42-19 59.32-52 59.32-52 32.49 16.94 36.26 46.13 36.6 55.54.03 1.91-.04 3.01-.04 3.01"/><path fill="#002f6c" d="M332.4 318.98v30.36a14.76 14.76 0 0 1-14.76 14.76h-20.93c-18.43 1.45-28.27 5.49-35.76 9.17s-12.65 7-21.72 7h-50.47c-18.12 0-20.52-13.32-57.6-16.2h-18.72a14.76 14.76 0 0 1-14.76-14.76v-30.33a75.83 75.83 0 0 1 46.816-70.07 75.8 75.8 0 0 1 29.024-5.77h8.65c0 16.83 13.64 30 30.47 30H215c16.83 0 30.48-13.17 30.48-30h11a75.83 75.83 0 0 1 75.92 75.84"/><path fill="#794628" d="M274.2 144.5v-3c-.34-9.41-4.11-38.6-36.6-55.54 0 0-11.54 42.84-82.8 59-1.23.27-2.49.55-3.76.81 0 0-25.46-75 6.14-93.5a13.93 13.93 0 0 1 13.15.25c4.88 3.12 9.77 8.21 12.85 10.84a12.1 12.1 0 0 0 8.41 2.9c4.23-.21 9.74-2.2 15.88-4.52 50.27-19 72.92 15.58 73.45 30.24.92 25.52 2.9 46.75-6.72 52.52"/><path fill="#002f6c" d="M184.07 253.69a29.8 29.8 0 0 1-1.9-10.54c-7.3 0-15.73-.17-22.87 1.32a75.47 75.47 0 0 0-40.19 21.69c-1.38 1.41-2.67 2.88-3.94 4.39l-.59.72a75.75 75.75 0 0 0-15.11 31.34c-2.83 10.67-1.46 35.5-1.76 46.7a14.73 14.73 0 0 0 14.76 14.75c1.75.08 20.24-.2 21.47.25-3.73-29.34-6-69.72 12.21-92.44 6.09-9.22 22-16.87 35.84-18.12.01.03.75.01 2.08-.06" opacity=".5" style="mix-blend-mode:multiply"/><path fill="#915110" d="m183.89 224.7-.24-.15.25.15z" opacity=".5" style="mix-blend-mode:multiply"/><path fill="#915110" d="m245.52 224.5-1.67 1c-.57.31-1.14.62-1.72.92s-1.15.59-1.74.86c-1.76.83-3.57 1.57-5.42 2.24-.62.22-1.24.43-1.87.62s-1.09.34-1.64.5l-.34.09-1.83.48c-.65.16-1.3.31-1.95.44l-1.13.22a58.8 58.8 0 0 1-20.57-8.14 58.91 58.91 0 0 1-27.36-49.79v-35.9a178 178 0 0 1-23.48 7v28.93a58.91 58.91 0 0 0 27.36 49.79v19.5a29.8 29.8 0 0 0 1.9 10.54 157.4 157.4 0 0 0 28.27-4.3c12.1-3 26.74-8.86 33.19-19.67z" opacity=".5" style="mix-blend-mode:multiply"/><path fill="#242424" d="M246.48 324.13c0-9.76 1-17.67 2.23-17.67h.29c.52 0 2.29 1.29 5.78 4.9q9.39-9.18 18.78 0c3.5-3.61 5.26-4.89 5.79-4.9h.23c1.24 0 2.23 7.91 2.23 17.67v1.09c0 4.137-1.644 8.105-4.569 11.031a15.6 15.6 0 0 1-11.031 4.569h-4.08a15.61 15.61 0 0 1-15.6-15.6v-2.16"/><path stroke="#242424" stroke-linecap="round" stroke-linejoin="round" stroke-width="7" d="M246.48 324.13c0-9.76 1-17.67 2.23-17.67h.29c.52 0 2.29 1.29 5.78 4.9q9.39-9.18 18.78 0c3.5-3.61 5.26-4.89 5.79-4.9h.23c1.24 0 2.23 7.91 2.23 17.67v1.09c0 4.137-1.644 8.105-4.569 11.031a15.6 15.6 0 0 1-11.031 4.569h-4.08a15.61 15.61 0 0 1-15.6-15.6v-2.16"/></svg>